#!OML:ASF F:\VICON\USERDATA\INSTALL\rory3\rory3.ASF
:FULLY-SPECIFIED
:DEGREES
66
root -0.6388453870639293 18.27603805326824 22.8835047306526 3.90199160033976 2.455153700556803 -2.393414047953227
lfemur -19.9271692230351 -0.8155442737373378 -21.120386439188625
ltibia 58.81158273437004
lfoot -12.378765684067078 -11.509044029518986
ltoes -19.374557999748575
rfemur -10.448552797395141 3.423624419401677 28.633848191574412
rtibia 55.13528819597187
rfoot 7.7255789752743915 -9.330710321043604
rtoes -2.0457007579734197
lowerback 12.689567049315325 1.2366023309026042 2.826135162413585
upperback -1.3831983473392366 2.1851814683319244 1.0620671579458179
thorax -8.789962849934764 1.0388299929436402 -0.9344459325303397
lowerneck -18.56466739499356 -4.789568454723647 -2.010500910479993
upperneck 13.573024786135349 -6.650146484746367 2.508401651129823
head 7.503303600199675 -3.0629383122651945 0.3096035934122958
lclavicle -6.477657499097609e-16 -4.860687357160946e-15
lhumerus -59.38700893065114 -9.253167487359821 97.47548779597753
lradius 108.74345003439662
lwrist 39.938225333105756
lhand -31.019619241506344 -0.6930951221725622
lfingers 7.125019999999998
lthumb -4.71519448465166 29.029586918642764
rclavicle -6.477657499832511e-16 -4.860687357212239e-15
rhumerus -45.52333113307333 14.796419669244496 -96.22139637060292
rradius 125.55789011988952
rwrist -13.623164033343459
rhand -18.714173158436363 37.247712652102805
rfingers 7.125019999999998
rthumb 7.818419529017229 9.236667396420748
67
root -0.6209242365016577 18.271871583115697 23.93424593797948 3.7333110691556217 2.455578970528312 -2.020777326142691
lfemur -17.865431499088604 -1.0946927819022467 -22.020177142766137
ltibia 55.518942751008396
lfoot -12.53949998306979 -10.542566586219206
ltoes -19.86746886369925
rfemur -11.94910177145782 3.3179749876156066 28.10307460173686
rtibia 57.264402575512136
rfoot 7.8861262566992405 -9.633504219645893
rtoes -1.371696589100594
lowerback 12.639208992899588 1.1225280075957473 2.322845991451226
upperback -1.3159348982486225 1.9351826081208492 0.9377158963731774
thorax -8.748614780554265 0.9493221346453096 -0.6610246442711735
lowerneck -18.606168405390036 -4.718442618919543 -2.0354011032195234
upperneck 13.430647407042171 -6.543831063351908 2.693392128005137
head 7.4854282340765605 -3.0038366133148244 0.4047533667518152
lclavicle -6.477657499025789e-16 -4.860687357155362e-15
lhumerus -59.08441580742177 -9.509818189137325 97.20436406922701
lradius 108.99598312575198
lwrist 39.31266986651197
lhand -30.877240316960574 -1.511311812825184
lfingers 7.125019999999998
lthumb -4.444459689837817 28.368850504865325
rclavicle -6.477657499810376e-16 -4.860687357210143e-15
rhumerus -45.89730746685866 14.869084066341365 -96.8301746022428
rradius 125.39178364958752
rwrist -13.348497454425495
rhand -18.752071794624225 36.97513891053151
rfingers 7.125019999999998
rthumb 7.731868286510665 8.551452340894123
68
root -0.6154479312611637 18.22911978628719 24.99354535411977 3.3753086636423753 2.4374824465678486 -1.5988912624900589
lfemur -16.039730167115884 -1.3581586720705365 -22.974545915384844
ltibia 53.40182978603557
lfoot -12.584712007775428 -9.584487362117908
ltoes -18.296179540757336
rfemur -13.357022146645917 3.0480529587263647 27.447020913216107
rtibia 59.65181544026273
rfoot 7.479440065588574 -9.796751869681708
rtoes 1.263055293863666
lowerback 12.89163875194079 1.0004185632651574 1.748598123421918
upperback -1.1634233530202427 1.6626740960234956 0.7736074356352917
thorax -8.768023666486382 0.8418674479357754 -0.3258729083406574
lowerneck -18.642064159039126 -4.625118224742522 -2.055448538374089
upperneck 13.214518515804011 -6.40278298033554 2.8879130006574925
head 7.4141969279720055 -2.9276487098273103 0.5157337273708608
lclavicle -6.477657499102846e-16 -4.8606873571601475e-15
lhumerus -58.431073754056904 -10.051253340967312 97.13253281752971
lradius 109.32009149843566
lwrist 38.75901505390024
lhand -31.54972765552366 -0.5531145459469171
lfingers 7.125019999999998
lthumb -5.296822064901583 29.118959538381613
rclavicle -6.477657499837314e-16 -4.860687357211343e-15
rhumerus -46.18994985382217 14.871413973802387 -97.51163091494753
rradius 124.98592547121632
rwrist -13.177985150023554
rhand -18.74059968161974 36.82034421856625
rfingers 7.125019999999998
rthumb 7.7062402370660665 8.029218018597563
69
root -0.6256096040025658 18.136176679155575 25.520805015248186 2.9011662655797847 2.4287353780315772 -1.336987291226018
lfemur -14.391448434813269 -1.521540442476527 -23.640981788958882
ltibia 52.66035041572799
lfoot -12.930386033724583 -8.751020096141916
ltoes -17.99742445503094
rfemur -14.614727556848713 2.737073778785253 26.995465113738767
rtibia 62.48108506334077
rfoot 6.050776067609146 -9.98423616427355
rtoes 3.4180687484594054
lowerback 13.369695019244663 0.8895682449394754 1.3025676026442252
upperback -0.9685318435697337 1.4207150486316948 0.6130663900547892
thorax -8.825472734890871 0.7522226218006326 0.04830755291961775
lowerneck -18.8289158471599 -4.532294641807647 -2.061911030260652
upperneck 12.913707724813014 -6.245360407248912 3.0749426646740305
head 7.348453877797591 -2.8390983146841324 0.6126388895225887
lclavicle -6.477657499090671e-16 -4.8606873571586265e-15
lhumerus -57.62720414937712 -10.857700840323037 97.14993787531691
lradius 109.61845989308772
lwrist 38.61094400665212
lhand -31.032284045055622 -1.9487716072273096
lfingers 7.125019999999998
lthumb -4.457596192387162 27.99768020609236
rclavicle -6.477657499798949e-16 -4.860687357207962e-15
rhumerus -46.45711844784613 14.79923928698253 -98.19382597817119
rradius 124.3017874112553
rwrist -13.215341943384933
rhand -18.757994652306383 36.54290673237331
rfingers 7.125019999999998
rthumb 7.525148891959114 7.1817650447521135
70
root -0.6740492581911459 17.971126751768974 25.3151894930819 2.271344287108467 2.2625171597886715 -1.1911657194503364
lfemur -13.041197444874946 -1.5531700760060976 -24.051385596544215
ltibia 53.14569687881899
lfoot -13.773329875762423 -8.004389439543239
ltoes -15.44337564143986
rfemur -15.759043681363135 2.4798833960243813 26.636323735433876
rtibia 65.70171883632719
rfoot 4.478281569453493 -9.983530190371502
rtoes 8.033193794621408
lowerback 13.98740803300486 0.828710463596743 0.9056461726499421
upperback -0.7215942191437889 1.2358197269288154 0.4507635987950449
thorax -8.87900403521767 0.6786929596387066 0.3682352980364202
lowerneck -19.05124191347317 -4.433846689126063 -2.0664647511309617
upperneck 12.558693690956215 -6.09361209984784 3.307829411492676
head 7.269130644335639 -2.7534066364817105 0.7251720055874759
lclavicle -6.477657499189945e-16 -4.860687357164912e-15
lhumerus -56.32116046116075 -11.791094299871535 97.2765643706893
lradius 109.92038908983923
lwrist 38.30730723583749
lhand -31.038877855507852 -2.18044586114962
lfingers 7.125019999999998
lthumb -4.331318843465295 27.86004134804464
rclavicle -6.477657499792402e-16 -4.860687357206761e-15
rhumerus -46.66777726212407 14.623861146769576 -98.82573156777335
rradius 123.42706142166071
rwrist -13.337173559924379
rhand -18.745307082615827 36.377112383448086
rfingers 7.125019999999998
rthumb 7.542587310381723 6.774197703032101
71
root -0.6944321002659186 17.799663599884916 25.829835791399862 1.879271861632098 2.125693316066499 -0.9329104436213096
lfemur -11.793851315381986 -1.4706054560957602 -24.49805678239217
ltibia 54.375378684764954
lfoot -14.957071981032486 -7.144318942846743
ltoes -11.977998420782725
rfemur -17.161697373680312 1.9918366530865386 26.038991914412193
rtibia 68.64719476460914
rfoot 2.0628119749309928 -10.020856314859289
rtoes 11.344892519617717
lowerback 14.535970280794652 0.7690908175850983 0.4803661528950999
upperback -0.500668798544172 1.0780804266271142 0.299843924840955
thorax -9.070673426919267 0.603164538729558 0.6104250343765809
lowerneck -19.272636275573795 -4.31356608397718 -2.0635025169789953
upperneck 12.214298726440656 -5.903739282535836 3.4782304184167407
head 7.1844740830324625 -2.6486107480471723 0.815426228685937
lclavicle -6.477657499172307e-16 -4.860687357162908e-15
lhumerus -54.61703303938222 -12.796796989955176 97.48014123225005
lradius 110.19901425413713
lwrist 38.21740423649856
lhand -31.515568191696044 -1.5512850821490212
lfingers 7.125019999999998
lthumb -4.902781591190228 28.372433277108104
rclavicle -6.477657499776632e-16 -4.860687357204961e-15
rhumerus -46.82008562750778 14.356511205570115 -99.45333467101696
rradius 122.43792558827029
rwrist -13.50766761444192
rhand -18.738759930923596 36.20613028354858
rfingers 7.125019999999998
rthumb 7.546662361605462 6.341274768278427
72
root -0.6958688512107583 17.64336399347132 26.669702453335283 1.684916144792124 2.017989627594997 -0.6751043334935536
lfemur -10.706671784850602 -1.3064492724844277 -24.78621860225759
ltibia 56.01879913418337
lfoot -16.26130506137793 -6.061969411243934
ltoes -9.95738312465509
rfemur -18.64551805600936 1.3858905664482362 25.458831970236897
rtibia 71.09215830818263
rfoot -0.28005760117543277 -9.76657891619487
rtoes 14.202276712127158
lowerback 15.001988098373236 0.6788240812040175 0.027495624293967458
upperback -0.3168016112780153 0.8766181715266447 0.1791542841928282
thorax -9.244133297714713 0.5086201060842167 0.8806131713581027
lowerneck -19.531422595669294 -4.184606652371423 -2.0546468048241966
upperneck 11.953679543404046 -5.701626019234469 3.552661656343162
head 7.12988426914843 -2.543228666561511 0.8664154883578351
lclavicle -6.477657499136028e-16 -4.860687357159809e-15
lhumerus -52.20146031277164 -13.693609013065712 97.78609037406459
lradius 110.36427460459036
lwrist 37.51472538588496
lhand -31.69499578183228 -0.9108487611950695
lfingers 7.125019999999998
lthumb -5.2864112708832245 28.80352321694793
rclavicle -6.477657499806273e-16 -4.860687357206541e-15
rhumerus -46.92216387841808 13.975984946285847 -100.02880951301248
rradius 121.37469015870538
rwrist -13.704222498115461
rhand -18.7527384400888 35.9627772308641
rfingers 7.125019999999998
rthumb 7.565789943643407 5.86920397947449
